<svg width="143" height="143" viewBox="0 0 143 143" fill="none" xmlns="http://www.w3.org/2000/svg">
<path d="M117.149 33.0969C132.713 49.9698 144.975 67.5844 142.735 85.4771C140.495 103.37 123.752 121.448 99.5804 132.48C75.527 143.42 44.1632 147.128 25.5336 137.301C7.02189 127.381 1.36226 103.926 0.183174 84.1792C-0.878006 64.4323 2.54135 48.4865 13.8606 32.3552C25.062 16.224 44.1632 0 63.2644 0C82.3657 0 101.467 16.224 117.149 33.0969Z" fill="#111827" fill-opacity="0.8"/>
<g clip-path="url(#clip0)">
<path d="M60.3448 100.933C60.3448 102.627 52.3397 104 42.4649 104C32.59 104 24.585 102.627 24.585 100.933C24.585 100.509 25.0846 100.106 25.9886 99.7401C28.6205 98.6715 34.6804 97.9121 41.8031 97.8682C42.0229 97.8666 42.2434 97.8657 42.4649 97.8657C52.3397 97.8657 60.3448 99.2394 60.3448 100.933Z" fill="#44425A"/>
<path opacity="0.1" d="M41.803 97.8682C41.0019 99.1641 39.9154 100.263 38.625 101.083C37.3347 101.903 35.874 102.423 34.3525 102.603C32.831 102.783 31.2881 102.619 29.8396 102.123C28.3911 101.627 27.0745 100.813 25.9885 99.74C28.6204 98.6715 34.6803 97.9121 41.803 97.8682Z" fill="black"/>
<path d="M33.3577 101.016C38.5258 101.016 42.7154 96.5617 42.7154 91.0676C42.7154 85.5735 38.5258 81.1196 33.3577 81.1196C28.1896 81.1196 24 85.5735 24 91.0676C24 96.5617 28.1896 101.016 33.3577 101.016Z" fill="#44425A"/>
<path d="M44.8398 45.9087C46.1666 50.9802 50.4468 54.2582 54.4096 53.2376Z" fill="#44425A"/>
<path d="M54.4097 53.2375C53.068 48.1089 55.5607 43.0374 59.9829 41.8984Z" fill="#6C63FF"/>
<path d="M47.5576 45.6992C48.8179 50.5166 51.8825 53.8882 54.4095 53.2374Z" fill="#6C63FF"/>
<path d="M54.4095 53.2375C52.6952 46.6844 55.444 40.3164 60.5553 39Z" fill="#44425A"/>
<path d="M52.9182 53.6907C52.9182 53.6907 53.9268 53.3978 54.1766 53.1024C54.4264 52.8069 55.6163 52.2245 55.7832 52.5522C55.95 52.8798 57.7629 53.8855 56.6174 54.1903C55.4719 54.4952 53.9038 54.6999 53.5496 54.5938C53.1955 54.4877 52.9182 53.6907 52.9182 53.6907Z" fill="#A8A8A8"/>
<path opacity="0.2" d="M56.6063 54.0642C55.4608 54.3691 53.8927 54.5738 53.5385 54.4677C53.2688 54.3869 53.0438 53.9057 52.9518 53.6807C52.9305 53.6871 52.9182 53.6907 52.9182 53.6907C52.9182 53.6907 53.1955 54.4877 53.5496 54.5938C53.9038 54.6999 55.4719 54.4952 56.6174 54.1904C56.9481 54.1024 57.0319 53.9559 56.9803 53.7843C56.9617 53.9008 56.8524 53.9987 56.6063 54.0642Z" fill="black"/>
<path d="M120 49.4521H52.658V88.1664H120V49.4521Z" fill="#F2F2F2"/>
<path opacity="0.3" d="M91.1749 61.2031H54.2454V80.3944H91.1749V61.2031Z" fill="#6C63FF"/>
<path d="M108.828 60.3662H94.0156V61.1792H108.828V60.3662Z" fill="#44425A"/>
<path d="M115.572 61.8672H94.0156V62.6802H115.572V61.8672Z" fill="#44425A"/>
<path d="M108.828 65.4946H94.0156V66.3076H108.828V65.4946Z" fill="#44425A"/>
<path d="M108.828 71.4985H94.0156V72.3115H108.828V71.4985Z" fill="#44425A"/>
<path d="M115.572 66.9951H94.0156V67.8081H115.572V66.9951Z" fill="#44425A"/>
<path d="M115.572 68.4966H94.0156V69.3096H115.572V68.4966Z" fill="#44425A"/>
<path d="M115.572 69.9971H94.0156V70.8101H115.572V69.9971Z" fill="#44425A"/>
<path d="M101.768 75.1255H94.0156V77.2518H101.768V75.1255Z" fill="#6C63FF"/>
<path d="M50.2756 72.8159C50.2756 72.8159 51.6673 68.9035 52.6725 70.1309C53.6776 71.3584 51.1261 73.4296 51.1261 73.4296L50.2756 72.8159Z" fill="#A0616A"/>
<path d="M43.7038 68.9805L44.541 69.2883C44.541 69.2883 44.9409 71.0517 44.7862 71.3586C44.6316 71.6655 44.5543 71.4353 44.7862 72.049C45.0182 72.6627 45.714 74.2737 45.7914 74.5039C45.8687 74.734 50.2757 73.0463 50.2757 72.2025C50.2757 72.2025 51.2035 73.2765 51.6674 73.5066C51.6674 73.5066 46.5645 77.1889 45.8687 77.6492C45.1728 78.1094 44.7862 77.8793 44.1677 77.3423C43.5492 76.8053 40.9204 72.3559 40.9204 72.3559L43.7038 68.9805Z" fill="#3D44B0"/>
<path d="M45.946 96.2136C45.946 96.2136 45.8687 97.0575 45.7141 97.1342C45.5594 97.2109 44.3997 99.1288 45.7141 99.5123C47.0285 99.8959 47.8016 99.7425 48.1109 99.8959C48.4201 100.049 53.8323 100.356 53.9096 99.5123C53.9869 98.6685 51.2809 98.5151 51.2809 98.5151C51.2809 98.5151 48.8067 96.9041 48.4201 96.0602C48.0336 95.2164 45.946 96.2136 45.946 96.2136Z" fill="#2F2E41"/>
<path d="M30.2508 97.748C30.2508 97.748 28.3952 100.893 28.8591 101.277C29.323 101.66 33.8409 103.058 34.5032 103.118C35.3537 103.195 35.9722 102.504 35.2764 102.121C34.5805 101.737 33.1115 100.126 33.1115 99.5892V98.2083L30.2508 97.748Z" fill="#2F2E41"/>
<path d="M28.4726 77.1885C28.4726 77.1885 26.8489 79.183 29.4004 82.405L33.6528 87.775C33.6528 87.775 31.024 91.9176 30.9467 94.0656C30.8694 96.2136 30.3282 95.7533 30.1735 96.6738C30.0189 97.5944 29.323 97.1341 29.8643 97.8245C30.4055 98.515 32.4157 99.1287 33.0342 98.5917C33.6528 98.0547 33.6528 97.3643 33.6528 97.0574C33.6528 96.7505 34.7352 94.9861 34.8125 94.4491C34.8898 93.9121 37.7505 89.5394 37.7505 89.5394C37.7505 89.5394 38.6783 86.9312 37.5959 85.4736C36.5135 84.016 35.7982 81.9488 35.7982 81.9488C35.7982 81.9488 38.9876 85.7804 41.2298 86.701C41.2298 86.701 42.0803 86.8544 41.9256 87.238C41.771 87.6216 41.9256 87.8517 42.1576 88.2353C42.3895 88.6189 44.0132 93.0683 44.5544 94.219C45.0956 95.3697 44.8637 96.0601 45.4822 96.4437C46.1007 96.8273 48.8841 96.5204 48.8841 96.1368C48.8841 95.7533 48.4976 94.756 48.2656 94.219C48.0337 93.682 46.1781 87.4682 46.3327 86.3942C46.4873 85.3202 46.2554 83.8626 45.0956 83.2489C43.9359 82.6352 38.0598 77.6488 37.7505 77.6488C37.4413 77.6488 28.4726 77.1885 28.4726 77.1885Z" fill="#171534"/>
<path d="M44.0132 65.1447C45.8066 65.1447 47.2605 63.7021 47.2605 61.9227C47.2605 60.1432 45.8066 58.7007 44.0132 58.7007C42.2197 58.7007 40.7659 60.1432 40.7659 61.9227C40.7659 63.7021 42.2197 65.1447 44.0132 65.1447Z" fill="#A0616A"/>
<path d="M41.3843 62.2295C41.3843 62.2295 40.3792 63.9939 39.1421 64.2241C37.905 64.4542 42.3894 67.9831 42.3894 67.9831C42.3894 67.9831 43.4718 64.6076 44.3996 64.4542C45.3274 64.3008 41.3843 62.2295 41.3843 62.2295Z" fill="#A0616A"/>
<path d="M44.5543 69.4405C44.5543 70.4378 41.539 73.2762 41.539 73.2762L38.6783 75.6544C38.6783 75.6544 38.6009 76.4982 38.2917 76.5749C37.9824 76.6517 37.5958 76.6517 37.9051 77.1119C38.2144 77.5722 38.9875 78.5695 38.2917 78.7229C38.0819 78.7546 37.8705 78.7746 37.6585 78.7828C37.4729 78.7935 37.2549 78.8035 37.0098 78.8127C36.4376 78.8326 35.7217 78.8457 34.9462 78.8403C34.7258 78.8395 34.5016 78.837 34.2735 78.8326C31.3502 78.7751 27.9637 78.4414 28.2405 77.3421C28.7044 75.5009 28.3952 74.8872 29.4003 73.89C30.4054 72.8927 32.029 69.4405 32.029 69.4405C32.029 69.4405 35.2763 63.9938 37.9824 63.9938L38.5445 63.8473C38.8057 63.779 39.0819 63.794 39.334 63.8901C39.5861 63.9862 39.8014 64.1586 39.9493 64.3828C40.4921 65.2029 41.348 66.4349 41.8482 66.8323C42.6214 67.446 42.742 67.0056 42.742 67.0056C42.742 67.0056 44.5543 68.4433 44.5543 69.4405Z" fill="#3D44B0"/>
<path d="M37.673 81.1011C37.673 81.1011 39.9152 84.5532 38.5235 85.1669C37.1318 85.7806 36.3586 81.5614 36.3586 81.5614L37.673 81.1011Z" fill="#A0616A"/>
<path d="M41.8903 61.5586C42.0149 61.543 42.0543 61.387 42.0753 61.2641C42.1876 60.606 42.6819 59.982 43.346 59.8757C43.5999 59.8422 43.858 59.8629 44.1031 59.9363C44.4543 60.0319 44.784 60.1929 45.0746 60.4107C45.2279 60.5258 45.3755 60.6594 45.56 60.7132C45.6819 60.7487 46.1993 60.9769 46.3201 61.0155C46.5859 61.1004 46.8059 61.3764 47.0796 61.3218C47.3415 61.2695 47.4409 60.9557 47.483 60.694C47.5789 60.0977 47.2349 59.208 46.8929 58.7086C46.6334 58.3295 46.1942 58.1114 45.7551 57.9695C45.2407 57.8146 44.7121 57.7104 44.177 57.6584C43.4547 57.5737 42.7066 57.5288 42.0144 57.7504C41.3222 57.9719 40.6919 58.5138 40.5627 59.224C40.5358 59.3719 40.5308 59.5234 40.4978 59.6701C40.4173 60.028 40.1786 60.3289 40.0394 60.6686C39.9389 60.9181 39.8923 61.1857 39.9025 61.4542C39.9127 61.7226 39.9794 61.986 40.0985 62.2273C40.2913 62.612 40.6266 62.9816 40.5542 63.4052L41.1509 62.9384C41.2371 62.8898 41.3039 62.8133 41.3401 62.7218C41.3764 62.6302 41.3799 62.529 41.35 62.4352L41.2633 61.6939C41.2474 61.5582 41.2336 61.4117 41.302 61.2932C41.5672 60.8335 41.6825 61.5846 41.8903 61.5586Z" fill="#2F2E41"/>
<path opacity="0.1" d="M36.2816 75.8079L37.0099 78.8128C36.2754 78.8389 35.3035 78.8527 34.2736 78.8327C34.0138 78.0594 33.7657 77.2532 33.5755 76.4983C32.8796 73.7366 34.0394 69.5173 34.6579 67.5228C35.2764 65.5282 36.8228 64.9912 36.8228 64.9912C36.8228 64.9912 37.5959 65.2214 38.6011 65.9118C39.6062 66.6022 36.2816 75.8079 36.2816 75.8079Z" fill="black"/>
<path opacity="0.1" d="M36.9 75.6542L37.6584 78.7826C37.4729 78.7934 37.2549 78.8034 37.0097 78.8126C36.4376 78.8325 35.7217 78.8455 34.9462 78.8402C34.6671 78.0186 34.3972 77.1517 34.1939 76.3447C33.498 73.583 34.6578 69.3637 35.2763 67.3691C35.8948 65.3746 37.2479 67.5609 37.2479 67.5609C37.2479 67.5609 36.7067 66.2568 37.7118 66.9472C38.7169 67.6376 36.9 75.6542 36.9 75.6542Z" fill="black"/>
<path d="M37.1318 64.8379C37.1318 64.8379 35.5855 65.3749 34.967 67.3695C34.3484 69.364 33.1887 73.5833 33.8846 76.345C34.5804 79.1067 36.0494 82.5588 36.0494 82.5588C36.0494 82.5588 37.5184 81.4848 38.0596 81.715L36.5906 75.6546C36.5906 75.6546 39.9152 66.4489 38.9101 65.7585C37.905 65.068 37.1318 64.8379 37.1318 64.8379Z" fill="#3D44B0"/>
<path d="M89.5875 59.2134H52.658V78.4047H89.5875V59.2134Z" fill="#44425A"/>
<path d="M71.8099 73.3387C74.1179 73.3387 75.9889 71.4789 75.9889 69.1847C75.9889 66.8906 74.1179 65.0308 71.8099 65.0308C69.5019 65.0308 67.6309 66.8906 67.6309 69.1847C67.6309 71.4789 69.5019 73.3387 71.8099 73.3387Z" fill="white"/>
<path d="M71.8098 64.3228C70.822 64.3228 69.8564 64.6134 69.0351 65.1579C68.2138 65.7024 67.5736 66.4764 67.1956 67.3819C66.8176 68.2874 66.7187 69.2837 66.9114 70.245C67.1041 71.2063 67.5798 72.0893 68.2783 72.7823C68.9767 73.4753 69.8667 73.9473 70.8355 74.1385C71.8043 74.3297 72.8085 74.2316 73.7211 73.8565C74.6337 73.4814 75.4137 72.8463 75.9625 72.0314C76.5113 71.2164 76.8042 70.2583 76.8042 69.2782C76.8004 67.9651 76.2729 66.7069 75.3371 65.7784C74.4013 64.8499 73.1332 64.3266 71.8098 64.3228V64.3228ZM70.7845 71.9204L68.2249 69.3807L68.9429 68.6683L70.7869 70.4981L74.6792 66.6361L75.3972 67.3485L70.7845 71.9204V71.9204Z" fill="#6C63FF"/>
</g>
<defs>
<clipPath id="clip0">
<rect width="96" height="65" fill="white" transform="translate(24 39)"/>
</clipPath>
</defs>
</svg>
